# xmcd
#
# Track frame offsets: 
#        150
#        17417
#        35623
#        52693
#        69104
#        86771
#        102208
#        112882
#        132017
#        147166
#        161410
#        185165
#
# Disc length: 2837 seconds
#
# Revision: 0
# Processed by: cddbd v1.5.2PL0 Copyright (c) Steve Scherf et al.
# Submitted via: ExactAudioCopyFreeDBPlugin 1.0
#
DISCID=8f0b130c
DTITLE=BEN HARPER and THE INNOCENT CRIMINALS - CALL IT WHAT IT IS
DYEAR=2016
DGENRE=Blues
TTITLE0=When Sex Was Dirty
TTITLE1=Deeper and Deeper
TTITLE2=Call It What It Is
TTITLE3=How Dark Is Gone
TTITLE4=Shine
TTITLE5=All That Has Grown
TTITLE6=Pink Balloon
TTITLE7=Finding Our Way
TTITLE8=Bones
TTITLE9=Dance Like Fire
TTITLE10=Goodbye to You
TTITLE11=Why(Am I Treated So Bad)
EXTD=
EXTT0=
EXTT1=
EXTT2=
EXTT3=
EXTT4=
EXTT5=
EXTT6=
EXTT7=
EXTT8=
EXTT9=
EXTT10=
EXTT11=
PLAYORDER=
